<svg width="135" height="41" viewBox="0 0 135 41" fill="none" xmlns="http://www.w3.org/2000/svg">
<rect x="0.5" y="1" width="134" height="39" rx="6.5" fill="black"/>
<rect x="0.5" y="1" width="134" height="39" rx="6.5" stroke="#A6A6A6"/>
<path d="M81.5267 19.7004V21.9914H80.0906V23.4938H81.5267V28.5988C81.5267 30.342 82.3152 31.0392 84.2991 31.0392C84.6478 31.0392 84.9798 30.9977 85.2703 30.9479V29.4621C85.0213 29.487 84.8636 29.5036 84.5896 29.5036C83.7015 29.5036 83.3113 29.0886 83.3113 28.1423V23.4938H85.2703V21.9914H83.3113V19.7004H81.5267Z" fill="white"/>
<path d="M90.3242 31.1638C92.9638 31.1638 94.5825 29.3957 94.5825 26.4655C94.5825 23.5519 92.9555 21.7756 90.3242 21.7756C87.6845 21.7756 86.0576 23.5519 86.0576 26.4655C86.0576 29.3957 87.6762 31.1638 90.3242 31.1638ZM90.3242 29.5783C88.7719 29.5783 87.9003 28.4411 87.9003 26.4655C87.9003 24.5065 88.7719 23.361 90.3242 23.361C91.8681 23.361 92.748 24.5065 92.748 26.4655C92.748 28.4328 91.8681 29.5783 90.3242 29.5783Z" fill="white"/>
<path d="M95.9674 30.9894H97.752V25.652C97.752 24.382 98.7066 23.527 100.06 23.527C100.375 23.527 100.906 23.5851 101.056 23.6349V21.8752C100.865 21.8254 100.524 21.8005 100.259 21.8005C99.0802 21.8005 98.0758 22.4479 97.8184 23.3361H97.6856V21.9499H95.9674V30.9894Z" fill="white"/>
<path d="M105.487 23.2946C106.807 23.2946 107.67 24.216 107.712 25.6354H103.146C103.246 24.2243 104.167 23.2946 105.487 23.2946ZM107.703 28.549C107.371 29.2546 106.633 29.6447 105.553 29.6447C104.126 29.6447 103.204 28.6403 103.146 27.0549V26.9553H109.53V26.3327C109.53 23.4938 108.01 21.7756 105.495 21.7756C102.947 21.7756 101.328 23.61 101.328 26.4987C101.328 29.3874 102.914 31.1638 105.504 31.1638C107.571 31.1638 109.015 30.1677 109.422 28.549H107.703Z" fill="white"/>
<path d="M69.8231 27.6513C69.9607 29.871 71.8105 31.2906 74.5636 31.2906C77.506 31.2906 79.3472 29.8021 79.3472 27.4276C79.3472 25.5606 78.2975 24.5282 75.7509 23.9346L74.3829 23.599C72.7655 23.2205 72.1116 22.7129 72.1116 21.8267C72.1116 20.7082 73.1268 19.9769 74.6497 19.9769C76.095 19.9769 77.093 20.691 77.2737 21.8353H79.1493C79.0374 19.7446 77.1963 18.2734 74.6755 18.2734C71.9654 18.2734 70.1586 19.7446 70.1586 21.9557C70.1586 23.7797 71.1824 24.8637 73.4279 25.3885L75.0282 25.7757C76.6715 26.1629 77.3942 26.7307 77.3942 27.6771C77.3942 28.7783 76.2585 29.5785 74.7099 29.5785C73.0494 29.5785 71.8965 28.83 71.7331 27.6513H69.8231Z" fill="white"/>
<path d="M51.3357 21.8005C50.1072 21.8005 49.0447 22.4147 48.4969 23.444H48.3641V21.9499H46.6458V33.9943H48.4305V29.6198H48.5716C49.0447 30.5744 50.0657 31.1388 51.3523 31.1388C53.6351 31.1388 55.0877 29.3376 55.0877 26.4655C55.0877 23.5934 53.6351 21.8005 51.3357 21.8005ZM50.8294 29.5368C49.3353 29.5368 48.3973 28.3581 48.3973 26.4738C48.3973 24.5812 49.3353 23.4025 50.8377 23.4025C52.3484 23.4025 53.2532 24.5563 53.2532 26.4655C53.2532 28.383 52.3484 29.5368 50.8294 29.5368Z" fill="white"/>
<path d="M61.3325 21.8005C60.104 21.8005 59.0415 22.4147 58.4937 23.444H58.3609V21.9499H56.6426V33.9943H58.4273V29.6198H58.5684C59.0415 30.5744 60.0625 31.1388 61.3491 31.1388C63.6319 31.1388 65.0845 29.3376 65.0845 26.4655C65.0845 23.5934 63.6319 21.8005 61.3325 21.8005ZM60.8262 29.5368C59.3321 29.5368 58.3941 28.3581 58.3941 26.4738C58.3941 24.5812 59.3321 23.4025 60.8345 23.4025C62.3452 23.4025 63.25 24.5563 63.25 26.4655C63.25 28.383 62.3452 29.5368 60.8262 29.5368Z" fill="white"/>
<path d="M43.4438 30.9894H45.4914L41.009 18.5746H38.9356L34.4531 30.9894H36.4319L37.5762 27.6943H42.3081L43.4438 30.9894ZM39.8733 20.8287H40.0196L41.8177 26.0768H38.0666L39.8733 20.8287Z" fill="white"/>
<path d="M35.6523 9.21069V15.1997H37.8147C39.5994 15.1997 40.6328 14.0999 40.6328 12.1865C40.6328 10.3022 39.5911 9.21069 37.8147 9.21069H35.6523ZM36.582 10.0574H37.7109C38.9519 10.0574 39.6865 10.8459 39.6865 12.199C39.6865 13.5728 38.9644 14.353 37.7109 14.353H36.582V10.0574Z" fill="white"/>
<path d="M43.7979 15.2869C45.1177 15.2869 45.9271 14.4028 45.9271 12.9377C45.9271 11.481 45.1136 10.5928 43.7979 10.5928C42.4781 10.5928 41.6646 11.481 41.6646 12.9377C41.6646 14.4028 42.4739 15.2869 43.7979 15.2869ZM43.7979 14.4941C43.0218 14.4941 42.586 13.9255 42.586 12.9377C42.586 11.9583 43.0218 11.3855 43.7979 11.3855C44.5699 11.3855 45.0098 11.9583 45.0098 12.9377C45.0098 13.9214 44.5699 14.4941 43.7979 14.4941Z" fill="white"/>
<path d="M52.8192 10.6799H51.9269L51.1217 14.1289H51.0511L50.1214 10.6799H49.2665L48.3368 14.1289H48.2704L47.461 10.6799H46.5562L47.8014 15.1997H48.7186L49.6483 11.8711H49.7188L50.6527 15.1997H51.5782L52.8192 10.6799Z" fill="white"/>
<path d="M53.8468 15.1997H54.7392V12.5559C54.7392 11.8503 55.1583 11.4104 55.8183 11.4104C56.4782 11.4104 56.7936 11.7715 56.7936 12.4978V15.1997H57.6859V12.2737C57.6859 11.1987 57.1298 10.5928 56.1212 10.5928C55.4406 10.5928 54.9923 10.8958 54.7724 11.3979H54.706V10.6799H53.8468V15.1997Z" fill="white"/>
<path d="M59.0913 15.1997H59.9836V8.91602H59.0913V15.1997Z" fill="white"/>
<path d="M63.3396 15.2869C64.6594 15.2869 65.4688 14.4028 65.4688 12.9377C65.4688 11.481 64.6553 10.5928 63.3396 10.5928C62.0198 10.5928 61.2063 11.481 61.2063 12.9377C61.2063 14.4028 62.0156 15.2869 63.3396 15.2869ZM63.3396 14.4941C62.5635 14.4941 62.1277 13.9255 62.1277 12.9377C62.1277 11.9583 62.5635 11.3855 63.3396 11.3855C64.1116 11.3855 64.5515 11.9583 64.5515 12.9377C64.5515 13.9214 64.1116 14.4941 63.3396 14.4941Z" fill="white"/>
<path d="M68.1275 14.5232C67.6419 14.5232 67.2891 14.2866 67.2891 13.8799C67.2891 13.4814 67.5713 13.2698 68.1939 13.2283L69.2979 13.1577V13.5354C69.2979 14.0957 68.7999 14.5232 68.1275 14.5232ZM67.8992 15.2744C68.4927 15.2744 68.9866 15.0171 69.2564 14.5647H69.327V15.1997H70.1861V12.1118C70.1861 11.1572 69.5469 10.5928 68.4139 10.5928C67.3887 10.5928 66.6583 11.0908 66.5669 11.8669H67.4302C67.5298 11.5474 67.8743 11.3647 68.3724 11.3647C68.9825 11.3647 69.2979 11.6345 69.2979 12.1118V12.502L68.0735 12.5725C66.9986 12.6389 66.3926 13.1079 66.3926 13.9214C66.3926 14.7473 67.0276 15.2744 67.8992 15.2744Z" fill="white"/>
<path d="M73.2142 15.2744C73.8368 15.2744 74.3639 14.9797 74.6336 14.4858H74.7042V15.1997H75.5592V8.91602H74.6668V11.3979H74.6004C74.3556 10.8999 73.8326 10.6052 73.2142 10.6052C72.0728 10.6052 71.3382 11.51 71.3382 12.9377C71.3382 14.3696 72.0645 15.2744 73.2142 15.2744ZM73.4674 11.4062C74.2145 11.4062 74.6834 11.9998 74.6834 12.9419C74.6834 13.8882 74.2186 14.4734 73.4674 14.4734C72.712 14.4734 72.2596 13.8965 72.2596 12.9377C72.2596 11.9873 72.7162 11.4062 73.4674 11.4062Z" fill="white"/>
<path d="M81.3457 15.2869C82.6655 15.2869 83.4748 14.4028 83.4748 12.9377C83.4748 11.481 82.6613 10.5928 81.3457 10.5928C80.0258 10.5928 79.2124 11.481 79.2124 12.9377C79.2124 14.4028 80.0217 15.2869 81.3457 15.2869ZM81.3457 14.4941C80.5695 14.4941 80.1337 13.9255 80.1337 12.9377C80.1337 11.9583 80.5695 11.3855 81.3457 11.3855C82.1176 11.3855 82.5576 11.9583 82.5576 12.9377C82.5576 13.9214 82.1176 14.4941 81.3457 14.4941Z" fill="white"/>
<path d="M84.656 15.1997H85.5483V12.5559C85.5483 11.8503 85.9675 11.4104 86.6274 11.4104C87.2874 11.4104 87.6028 11.7715 87.6028 12.4978V15.1997H88.4951V12.2737C88.4951 11.1987 87.939 10.5928 86.9304 10.5928C86.2498 10.5928 85.8015 10.8958 85.5815 11.3979H85.5151V10.6799H84.656V15.1997Z" fill="white"/>
<path d="M92.6048 9.55518V10.7007H91.8868V11.4519H92.6048V14.0044C92.6048 14.876 92.9991 15.2246 93.9911 15.2246C94.1654 15.2246 94.3314 15.2039 94.4767 15.179V14.436C94.3521 14.4485 94.2733 14.4568 94.1363 14.4568C93.6922 14.4568 93.4972 14.2493 93.4972 13.7761V11.4519H94.4767V10.7007H93.4972V9.55518H92.6048Z" fill="white"/>
<path d="M95.6745 15.1997H96.5668V12.5601C96.5668 11.8752 96.9735 11.4146 97.704 11.4146C98.3349 11.4146 98.671 11.7798 98.671 12.502V15.1997H99.5634V12.282C99.5634 11.207 98.9699 10.5969 98.007 10.5969C97.3263 10.5969 96.849 10.8999 96.6291 11.4062H96.5585V8.91602H95.6745V15.1997Z" fill="white"/>
<path d="M102.782 11.3523C103.442 11.3523 103.874 11.813 103.895 12.5227H101.612C101.662 11.8171 102.123 11.3523 102.782 11.3523ZM103.891 13.9795C103.725 14.3323 103.355 14.5273 102.816 14.5273C102.102 14.5273 101.641 14.0251 101.612 13.2324V13.1826H104.804V12.8713C104.804 11.4519 104.044 10.5928 102.787 10.5928C101.512 10.5928 100.703 11.51 100.703 12.9543C100.703 14.3987 101.496 15.2869 102.791 15.2869C103.824 15.2869 104.546 14.7888 104.75 13.9795H103.891Z" fill="white"/>
<path d="M24.77 20.8011C24.7916 19.1201 25.6944 17.5295 27.1265 16.649C26.2231 15.3587 24.7098 14.5406 23.1354 14.4913C21.4561 14.3151 19.8282 15.4962 18.9725 15.4962C18.1002 15.4962 16.7827 14.5088 15.364 14.538C13.5147 14.5978 11.7907 15.6491 10.891 17.2659C8.95705 20.6143 10.3996 25.5354 12.2522 28.242C13.1791 29.5673 14.2624 31.0478 15.6799 30.9953C17.0669 30.9377 17.585 30.1108 19.2593 30.1108C20.918 30.1108 21.4041 30.9953 22.8503 30.9619C24.3387 30.9377 25.2764 29.6306 26.1708 28.2927C26.8368 27.3484 27.3492 26.3047 27.6892 25.2002C25.9401 24.4604 24.772 22.7002 24.77 20.8011Z" fill="white"/>
<path d="M22.0383 12.7113C22.8498 11.7371 23.2496 10.4849 23.1528 9.2207C21.913 9.35092 20.7677 9.94348 19.9452 10.8803C19.141 11.7956 18.7224 13.0258 18.8015 14.2417C20.0418 14.2545 21.2611 13.678 22.0383 12.7113Z" fill="white"/>
</svg>
