<svg width="768" height="630" viewBox="0 0 768 630" fill="none" xmlns="http://www.w3.org/2000/svg">
<g id="No Results">
<g id="circle">
<path id="Stroke 1" d="M26.8213 289.975V296.478" stroke="#D2D8DF" stroke-width="2.921" stroke-linecap="round"/>
<g id="Group 8">
<path id="Stroke 2" d="M12.2139 293.496L17.5279 298.966" stroke="#D2D8DF" stroke-width="2.921" stroke-linecap="round"/>
<path id="Stroke 4" d="M6 308.06H13.514" stroke="#D2D8DF" stroke-width="2.921" stroke-linecap="round"/>
<path id="Stroke 6" d="M11.6045 322.879L16.9185 317.408" stroke="#D2D8DF" stroke-width="2.921" stroke-linecap="round"/>
</g>
<path id="Stroke 9" d="M26.8213 324.656V318.152" stroke="#D2D8DF" stroke-width="2.921" stroke-linecap="round"/>
<path id="Stroke 10" d="M37.6607 320.323L33.3252 315.987" stroke="#D2D8DF" stroke-width="2.921" stroke-linecap="round"/>
<path id="Stroke 11" d="M46.3323 309.483H39.8291" stroke="#D2D8DF" stroke-width="2.921" stroke-linecap="round"/>
<path id="Stroke 12" d="M41.9966 294.308L37.6611 298.643" stroke="#D2D8DF" stroke-width="2.921" stroke-linecap="round"/>
<path id="Stroke 13" d="M375.826 6V10.3355" stroke="#D2D8DF" stroke-width="2.921" stroke-linecap="round"/>
<path id="Stroke 15" d="M362.821 19.0078H367.157" stroke="#D2D8DF" stroke-width="2.921" stroke-linecap="round"/>
<path id="Stroke 16" d="M375.826 32.0122V27.6768" stroke="#D2D8DF" stroke-width="2.921" stroke-linecap="round"/>
<path id="Stroke 17" d="M386.666 19.0078H382.33" stroke="#D2D8DF" stroke-width="2.921" stroke-linecap="round"/>
<path id="Stroke 18" d="M124.371 188.089V194.592" stroke="#D2D8DF" stroke-width="2.921" stroke-linecap="round"/>
<path id="Stroke 19" d="M104.859 207.601H111.363" stroke="#D2D8DF" stroke-width="2.921" stroke-linecap="round"/>
<path id="Stroke 20" d="M124.371 224.941V218.438" stroke="#D2D8DF" stroke-width="2.921" stroke-linecap="round"/>
<path id="Stroke 21" d="M141.711 207.601H135.208" stroke="#D2D8DF" stroke-width="2.921" stroke-linecap="round"/>
<g id="Group 42">
<path id="Stroke 22" d="M590.986 424.456C596.167 424.456 600.368 428.659 600.368 433.84C600.368 439.024 596.167 443.225 590.986 443.225C585.806 443.225 581.604 439.024 581.604 433.84" stroke="#D2D8DF" stroke-width="2.921" stroke-linecap="round"/>
<path id="Fill 26" fill-rule="evenodd" clip-rule="evenodd" d="M633.923 339.318C639.493 337.58 648.033 330.768 650.009 323.438C651.802 329.917 659.316 337.58 666.095 338.16C658.463 340.862 651.167 348.89 650.009 355.197C649.221 348.769 639.129 340.255 633.923 339.318Z" fill="#EBECEE"/>
<path id="Fill 28" fill-rule="evenodd" clip-rule="evenodd" d="M62.0977 421.567C64.8839 420.698 69.1516 417.293 70.1398 413.628C71.0361 416.866 74.7922 420.698 78.182 420.989C74.367 422.339 70.7195 426.353 70.1398 429.507C69.746 426.293 64.6999 422.035 62.0977 421.567Z" fill="#EBECEE"/>
<path id="Fill 30" fill-rule="evenodd" clip-rule="evenodd" d="M113.804 120.017C113.804 124.037 110.547 127.294 106.53 127.294C102.51 127.294 99.2549 124.037 99.2549 120.017C99.2549 115.998 102.51 112.74 106.53 112.74C110.547 112.74 113.804 115.998 113.804 120.017Z" fill="#D1D8DF"/>
<path id="Fill 32" fill-rule="evenodd" clip-rule="evenodd" d="M599.582 139.554C599.582 146.271 594.136 151.716 587.423 151.716C580.705 151.716 575.262 146.271 575.262 139.554C575.262 132.837 580.705 127.392 587.423 127.392C594.136 127.392 599.582 132.837 599.582 139.554Z" fill="#EBECEE"/>
<path id="Fill 34" fill-rule="evenodd" clip-rule="evenodd" d="M768.002 106.603C768.002 111.932 763.685 116.25 758.359 116.25C753.031 116.25 748.714 111.932 748.714 106.603C748.714 101.274 753.031 96.9551 758.359 96.9551C763.685 96.9551 768.002 101.274 768.002 106.603Z" fill="#EBECEE"/>
<path id="Stroke 36" fill-rule="evenodd" clip-rule="evenodd" d="M249.762 557.186C249.762 560.545 247.041 563.268 243.682 563.268C240.325 563.268 237.604 560.545 237.604 557.186C237.604 553.826 240.325 551.104 243.682 551.104C247.041 551.104 249.762 553.826 249.762 557.186Z" stroke="#D2D8DF" stroke-width="2.921" stroke-linecap="round"/>
<path id="Stroke 38" fill-rule="evenodd" clip-rule="evenodd" d="M246.144 73.2679C246.144 77.2882 242.887 80.5446 238.869 80.5446C234.852 80.5446 231.595 77.2882 231.595 73.2679C231.595 69.2494 234.852 65.9912 238.869 65.9912C242.887 65.9912 246.144 69.2494 246.144 73.2679Z" stroke="#D2D8DF" stroke-width="2.921" stroke-linecap="round"/>
<path id="Stroke 40" fill-rule="evenodd" clip-rule="evenodd" d="M431.71 624.534C427.061 626.303 421.859 623.967 420.09 619.319C418.322 614.669 420.655 609.463 425.306 607.696C429.952 605.927 435.155 608.261 436.924 612.911C438.694 617.561 436.359 622.765 431.71 624.534Z" stroke="#D2D8DF" stroke-width="2.921" stroke-linecap="round"/>
</g>
</g>
<g id="search">
<g id="documents">
<path id="Fill 1" fill-rule="evenodd" clip-rule="evenodd" d="M428.934 452.552H251.17C238.658 452.552 228.416 442.28 228.416 429.726V176.225C228.416 163.671 238.658 153.404 251.17 153.404H428.934C441.451 153.404 451.693 163.671 451.693 176.225V429.726C451.693 442.28 441.451 452.552 428.934 452.552Z" fill="#E0E2EE"/>
<path id="Fill 3" fill-rule="evenodd" clip-rule="evenodd" d="M413.758 463.392H235.994C223.482 463.392 213.24 453.12 213.24 440.566V187.065C213.24 174.511 223.482 164.244 235.994 164.244H413.758C426.275 164.244 436.517 174.511 436.517 187.065V440.566C436.517 453.12 426.275 463.392 413.758 463.392Z" fill="#E8EBF2"/>
<path id="Fill 5" fill-rule="evenodd" clip-rule="evenodd" d="M399 471.947H220.868C208.33 471.947 198.067 461.717 198.067 449.215V196.764C198.067 184.262 208.33 174.038 220.868 174.038H399C411.543 174.038 421.806 184.262 421.806 196.764V449.215C421.806 461.717 411.543 471.947 399 471.947Z" fill="#D8DBEA"/>
<path id="Fill 8" fill-rule="evenodd" clip-rule="evenodd" d="M399 471.947H220.868C208.33 471.947 198.067 461.717 198.067 449.215V196.764C198.067 184.262 208.33 174.038 220.868 174.038H399C411.543 174.038 421.806 184.262 421.806 196.764V449.215C421.806 461.717 411.543 471.947 399 471.947Z" fill="#F1F2F7"/>
<path id="Fill 11" fill-rule="evenodd" clip-rule="evenodd" d="M373.325 250.953H241.753C237.996 250.953 234.92 248.027 234.92 244.452C234.92 240.872 237.996 237.946 241.753 237.946H373.325C377.082 237.946 380.158 240.872 380.158 244.452C380.158 248.027 377.082 250.953 373.325 250.953Z" fill="#E0E2EE"/>
<path id="Fill 13" fill-rule="evenodd" clip-rule="evenodd" d="M373.325 289.97H241.753C237.996 289.97 234.92 287.044 234.92 283.47C234.92 279.89 237.996 276.964 241.753 276.964H373.325C377.082 276.964 380.158 279.89 380.158 283.47C380.158 287.044 377.082 289.97 373.325 289.97Z" fill="#E0E2EE"/>
<path id="Fill 15" fill-rule="evenodd" clip-rule="evenodd" d="M373.325 328.991H241.753C237.996 328.991 234.92 326.065 234.92 322.49C234.92 318.915 237.996 315.984 241.753 315.984H373.325C377.082 315.984 380.158 318.915 380.158 322.49C380.158 326.065 377.082 328.991 373.325 328.991Z" fill="#E0E2EE"/>
<path id="Fill 17" fill-rule="evenodd" clip-rule="evenodd" d="M373.325 368.011H241.753C237.996 368.011 234.92 365.085 234.92 361.511C234.92 357.931 237.996 355.005 241.753 355.005H373.325C377.082 355.005 380.158 357.931 380.158 361.511C380.158 365.085 377.082 368.011 373.325 368.011Z" fill="#E0E2EE"/>
<path id="Fill 19" fill-rule="evenodd" clip-rule="evenodd" d="M310.431 407.029H241.782C238.009 407.029 234.92 404.103 234.92 400.528C234.92 396.949 238.009 394.022 241.782 394.022H310.431C314.205 394.022 317.294 396.949 317.294 400.528C317.294 404.103 314.205 407.029 310.431 407.029Z" fill="#E0E2EE"/>
</g>
<g id="search_2">
<path id="Fill 21" fill-rule="evenodd" clip-rule="evenodd" d="M448.995 356.603C422.686 382.908 381.956 385.875 352.386 365.566C348.607 362.924 345.011 359.956 341.656 356.603C339.93 354.882 338.302 353.106 336.769 351.236C333.701 347.502 331.015 343.519 328.813 339.405C324.935 332.455 322.298 325.08 320.858 317.457C316.213 293.552 323.159 267.821 341.656 249.332C360.198 230.788 385.933 223.888 409.843 228.488C417.461 229.972 424.843 232.609 431.794 236.442C435.915 238.692 439.843 241.379 443.583 244.445C445.448 245.973 447.224 247.606 448.945 249.332C452.305 252.686 455.317 256.277 457.91 260.06C478.228 289.619 475.254 330.348 448.995 356.603Z" fill="white" fill-opacity="0.1"/>
<path id="Fill 23" fill-rule="evenodd" clip-rule="evenodd" d="M441.631 351.423C414.26 378.8 369.903 378.795 342.527 351.423C315.186 324.083 315.186 279.721 342.562 252.35C369.903 225.009 414.26 225.009 441.601 252.35C468.972 279.721 468.972 324.083 441.631 351.423ZM455.678 238.286C420.545 203.153 363.613 203.153 328.48 238.286C293.351 273.415 293.321 330.383 328.449 365.516C360.424 397.481 410.542 400.364 445.792 374.118C449.235 371.551 452.551 368.674 455.714 365.516C458.872 362.353 461.749 359.037 464.311 355.594C490.557 320.339 487.648 270.257 455.678 238.286Z" fill="#E0E2EE"/>
<path id="Fill 25" fill-rule="evenodd" clip-rule="evenodd" d="M593.943 497.951L592.468 499.426C582.71 509.189 566.731 509.189 556.968 499.426L466.866 409.324L503.842 372.349L593.943 462.45C603.707 472.213 603.707 488.188 593.943 497.951Z" fill="url(#paint0_linear_525_11149)"/>
<path id="Fill 27" fill-rule="evenodd" clip-rule="evenodd" d="M466.255 352.837L492.88 379.462L473.978 398.359L447.357 371.734C450.871 369.115 454.249 366.178 457.482 362.956C460.704 359.734 463.64 356.35 466.255 352.837Z" fill="#E0E2EE"/>
<path id="Fill 29" fill-rule="evenodd" clip-rule="evenodd" d="M592.595 461.342L555.855 498.077L549.24 491.458L585.976 454.723L592.595 461.342Z" fill="#EF545F"/>
<path id="Fill 31" fill-rule="evenodd" clip-rule="evenodd" d="M505.885 373.62L468.138 411.367L462.53 405.76L500.277 368.013L505.885 373.62Z" fill="url(#paint1_linear_525_11149)"/>
<path id="Fill 33" fill-rule="evenodd" clip-rule="evenodd" d="M423.514 242.932L330.944 335.497C327.458 329.249 325.087 322.619 323.798 315.766L403.782 235.781C410.63 237.12 417.265 239.485 423.514 242.932Z" fill="white" fill-opacity="0.5"/>
<path id="Fill 35" fill-rule="evenodd" clip-rule="evenodd" d="M453.861 264.932L353.783 359.341C350.199 356.981 346.787 354.326 343.606 351.325C341.969 349.78 340.42 348.196 338.971 346.522L440.268 250.954C442.042 252.326 443.726 253.787 445.359 255.332C448.54 258.333 451.402 261.546 453.861 264.932Z" fill="white" fill-opacity="0.5"/>
</g>
</g>
</g>
<defs>
<linearGradient id="paint0_linear_525_11149" x1="534.066" y1="305.149" x2="399.666" y2="439.548" gradientUnits="userSpaceOnUse">
<stop stop-color="#FF8960"/>
<stop offset="1" stop-color="#FF62A5"/>
</linearGradient>
<linearGradient id="paint1_linear_525_11149" x1="484.208" y1="346.335" x2="440.853" y2="389.69" gradientUnits="userSpaceOnUse">
<stop stop-color="#FF404E"/>
<stop offset="1" stop-color="#FF62A5"/>
</linearGradient>
</defs>
</svg>
